# xmcd CD database file
#
# Track frame offsets:
#	150
#	13094
#	26414
#	37040
#	48414
#	60998
#	72438
#	83737
#	93140
#	108884
#	119556
#	132126
#
# Disc length: 1914 seconds
#
# Revision: 0
# Processed by: cddbd v1.5.2PL0 Copyright (c) Steve Scherf et al.
# Submitted via: CDex 1.70beta2
#
DISCID=9507780c
DTITLE=Charley Pride - Charley Pride Kiss An Angel Good Morning
DYEAR=1900
DGENRE=Country
TTITLE0=Charley Pride - Kaw-Liga
TTITLE1=Charley Pride - (I'm So) Afraid Of Losing You
TTITLE2=Charley Pride - Oklahoma Morning
TTITLE3=Charley Pride - It's Going To Take A Little Bit Longer
TTITLE4=Charley Pride - Crystal Chandeliers
TTITLE5=Charley Pride - Shutters And Boards
TTITLE6=Charley Pride - The Happiness Of Having You
TTITLE7=Charley Pride - Kiss An Angel Good Morning
TTITLE8=Charley Pride - Let Me Live In The Light Of His Love
TTITLE9=Charley Pride - Mississippi Cotton-Picking Delta Town
TTITLE10=Charley Pride - Help Me Make It Through The Night'
TTITLE11=Charley Pride - Louisiana Man
EXTD=
EXTT0=
EXTT1=
EXTT2=
EXTT3=
EXTT4=
EXTT5=
EXTT6=
EXTT7=
EXTT8=
EXTT9=
EXTT10=
EXTT11=
PLAYORDER=
